<svg id="Layer_1" data-name="Layer 1" xmlns="http://www.w3.org/2000/svg" width="535.5468" height="176.31" viewBox="0 0 535.5468 176.31"><defs><style>.cls-1{fill:#30454f;}.cls-2{fill:#97a0ae;}.cls-3{fill:#4d4d48;}.cls-4{fill:#e94444;}</style></defs><path class="cls-1" d="M412.2446,327.3129H329.3581v-2.8962l55.5586-77.9995H334.425V229.5857h80.3531v3.0775L359.4,310.4828h52.8451Z" transform="translate(-153.6638 -207.4515)"/><path class="cls-1" d="M440.0051,304.6q7.0582,7.5124,19.3649,7.5111a29.0387,29.0387,0,0,0,15.2913-3.9816,26.327,26.327,0,0,0,10.2258-11.5818l18.46,5.9723a43.03,43.03,0,0,1-17.1022,20.1782,47.5218,47.5218,0,0,1-25.7892,7.33q-14.8407,0-25.88-6.515a44.0847,44.0847,0,0,1-17.0115-18.0075,55.8708,55.8708,0,0,1-5.9723-26.1505q0-15.5626,5.8816-27.5093a43.4093,43.4093,0,0,1,16.65-18.46q10.7643-6.5142,25.2465-6.5149,21.8949,0,33.7508,14.1167,11.8526,14.1166,11.8539,37.643,0,3.2583-.18,5.0669h-72.934Q432.9467,297.0924,440.0051,304.6Zm.8147-54.2918q-6.6085,6.6084-8.4165,18.1875h52.8452q-1.45-12.3045-7.6-18.55-6.1543-6.2422-18.6408-6.2429Q447.4227,243.7024,440.82,250.308Z" transform="translate(-153.6638 -207.4515)"/><path class="cls-1" d="M549.7466,230.5818a37.834,37.834,0,0,1,10.6778-1.5388,40.7626,40.7626,0,0,1,6.6964.5427v17.7355a29.86,29.86,0,0,0-7.2391-.904,24.8538,24.8538,0,0,0-23.5264,15.654q-2.8982,7.33-2.8961,18.1875v47.0542H514.457V229.5857h16.83v15.9261a32.3309,32.3309,0,0,1,9.05-10.3152A29.7372,29.7372,0,0,1,549.7466,230.5818Z" transform="translate(-153.6638 -207.4515)"/><path class="cls-1" d="M587.37,323.5127a43.6269,43.6269,0,0,1-16.65-18.2795,59.0684,59.0684,0,0,1-5.8816-26.7839q0-15.2028,5.9723-26.9653a43.6411,43.6411,0,0,1,16.7408-18.1874q10.7643-6.4223,25.0652-6.4257,14.4765,0,25.3358,6.5149a43.4962,43.4962,0,0,1,16.7408,18.28,59.1258,59.1258,0,0,1,5.8816,26.7839q0,15.2027-5.8816,26.8746a43.4287,43.4287,0,0,1-16.8315,18.1888,48.4331,48.4331,0,0,1-25.2451,6.515Q598.1359,330.0277,587.37,323.5127Zm46.0582-69.7659q-7.0584-8.9583-20.8116-8.9591-13.7568,0-20.7224,9.0484-6.9683,9.0526-6.9669,24.6132,0,15.7448,7.1483,24.7038,7.1463,8.9585,20.541,8.9578,13.75,0,20.8116-9.1391,7.0582-9.1363,7.0576-24.5225Q640.4859,262.7046,633.4283,253.7468Z" transform="translate(-153.6638 -207.4515)"/><path class="cls-2" d="M364.8905,362.3179a28.0169,28.0169,0,0,1-1.6016,9.6915,17.1746,17.1746,0,0,1-4.8032,7.1777,14.521,14.521,0,0,1-7.7775,3.43,35.6693,35.6693,0,0,1-5.2608.286H332.9811V341.7309h12.4663a35.8809,35.8809,0,0,1,5.2608.286,14.5332,14.5332,0,0,1,7.7775,3.4319,17.1694,17.1694,0,0,1,4.8032,7.1762A28.02,28.02,0,0,1,364.8905,362.3179Zm-4.4615,0a22.2326,22.2326,0,0,0-2.4009-10.8648,10.5911,10.5911,0,0,0-7.6631-5.3752,29.3009,29.3009,0,0,0-4.9176-.2859h-8.1193v33.0519h8.1193a29.2982,29.2982,0,0,0,4.9176-.286,10.5948,10.5948,0,0,0,7.6631-5.3752A22.2363,22.2363,0,0,0,360.429,362.3179Z" transform="translate(-153.6638 -207.4515)"/><path class="cls-2" d="M390.8973,345.7348V360.03h18.1261v4.0025H390.8973v14.8686h21.558v4.0024H386.7219V341.7309h25.7334v4.0039Z" transform="translate(-153.6638 -207.4515)"/><path class="cls-2" d="M456.5324,353.6825a9.642,9.642,0,0,0-4.86-7.0912,10.7542,10.7542,0,0,0-3.1459-1.229,15.99,15.99,0,0,0-3.6592-.4283,10.8261,10.8261,0,0,0-5.7184,1.4871,7.7106,7.7106,0,0,0-2.43,2.3437,5.881,5.881,0,0,0-.9431,3.3161,6.0581,6.0581,0,0,0,.3432,1.974,3.8046,3.8046,0,0,0,1.1426,1.6867,8.6654,8.6654,0,0,0,2.3451,1.5443,26.8731,26.8731,0,0,0,3.4876,1.257l7.3771,2.1163q5.6606,1.6008,8.0063,3.9452a8.5334,8.5334,0,0,1,2.0871,3.2031,12.3077,12.3077,0,0,1,.6,4.06,10.6661,10.6661,0,0,1-1.1439,4.89,11.3177,11.3177,0,0,1-3.2017,3.8587,14.8519,14.8519,0,0,1-4.86,2.4023,22.1366,22.1366,0,0,1-6.0044.7436,20.4166,20.4166,0,0,1-7.0618-1.2012,14.6619,14.6619,0,0,1-5.7477-3.8308,13.6413,13.6413,0,0,1-3.43-6.8624l4.2885-.6863a10.9825,10.9825,0,0,0,3.03,5.2036,12.8285,12.8285,0,0,0,9.0358,3.3746,16.8307,16.8307,0,0,0,4.2605-.544,10.4578,10.4578,0,0,0,3.5156-1.5723,7.066,7.066,0,0,0,3.0315-5.89,6.396,6.396,0,0,0-.43-2.3159,5.0789,5.0789,0,0,0-1.2862-1.9154,6.8161,6.8161,0,0,0-2.2015-1.4871q-1.23-.5148-3.5169-1.2012l-7.5473-2.2293q-3.0887-.9144-4.7181-1.5736a9.5835,9.5835,0,0,1-3.0594-2.03,8.7278,8.7278,0,0,1-2.8027-6.7479,10.2608,10.2608,0,0,1,1.3727-5.2315,11.0857,11.0857,0,0,1,3.7179-3.86,15.9192,15.9192,0,0,1,8.8056-2.288,21.1548,21.1548,0,0,1,4.7182.5441,14.3262,14.3262,0,0,1,11.007,11.5219Z" transform="translate(-153.6638 -207.4515)"/><path class="cls-2" d="M486.9979,341.7309v41.1726h-4.1741V341.7309Z" transform="translate(-153.6638 -207.4515)"/><path class="cls-2" d="M546.8588,363.2331a25.7341,25.7341,0,0,1-1.144,7.6045,20.2909,20.2909,0,0,1-3.3732,6.5763q-5.0913,6.3469-14.3539,6.3476a19.6566,19.6566,0,0,1-8.2337-1.7159,15.138,15.138,0,0,1-6.1759-5.0892,24.2936,24.2936,0,0,1-4.3456-14.6385q0-9.0924,4.4028-14.8686a16.5245,16.5245,0,0,1,6.2038-4.8883,19.3679,19.3679,0,0,1,8.1486-1.6881,20.5212,20.5212,0,0,1,7.6338,1.3728,15.0091,15.0091,0,0,1,5.9193,4.2312,13.108,13.108,0,0,1,3.4877,5.7184l-4.4029,1.0868a11.9356,11.9356,0,0,0-2.1735-3.6593,11.3908,11.3908,0,0,0-4.4879-3.3161,14.7981,14.7981,0,0,0-5.8049-1.1439,15.0553,15.0553,0,0,0-6.2038,1.3141,11.8542,11.8542,0,0,0-4.7754,3.7751q-3.2037,4.3462-3.316,12.0659a30.8176,30.8176,0,0,0,.7714,6.6615,14.2437,14.2437,0,0,0,2.5446,5.4044,11.9585,11.9585,0,0,0,4.7754,3.8016,15.7626,15.7626,0,0,0,12.0659.1716,11.0391,11.0391,0,0,0,4.4879-3.46,16.2255,16.2255,0,0,0,3.4891-9.3776h-10.064v-3.6021h14.8672Z" transform="translate(-153.6638 -207.4515)"/><path class="cls-2" d="M595.3946,375.4692V341.7309h4.2326v41.1726h-4.2326L572.7512,349.108v33.7955h-4.2326V341.7309h4.2326Z" transform="translate(-153.6638 -207.4515)"/><path class="cls-2" d="M647.5352,353.6825a9.642,9.642,0,0,0-4.86-7.0912,10.7542,10.7542,0,0,0-3.1459-1.229,15.99,15.99,0,0,0-3.6593-.4283,10.826,10.826,0,0,0-5.7183,1.4871,7.7106,7.7106,0,0,0-2.43,2.3437,5.881,5.881,0,0,0-.9431,3.3161,6.0581,6.0581,0,0,0,.3432,1.974,3.8052,3.8052,0,0,0,1.1425,1.6867,8.667,8.667,0,0,0,2.3451,1.5443,26.8806,26.8806,0,0,0,3.4877,1.257l7.3771,2.1163q5.6605,1.6008,8.0063,3.9452a8.5319,8.5319,0,0,1,2.087,3.2031,12.305,12.305,0,0,1,.6,4.06,10.6661,10.6661,0,0,1-1.1439,4.89,11.3177,11.3177,0,0,1-3.2017,3.8587,14.8529,14.8529,0,0,1-4.86,2.4023,22.1371,22.1371,0,0,1-6.0044.7436,20.4166,20.4166,0,0,1-7.0618-1.2012,14.6619,14.6619,0,0,1-5.7477-3.8308,13.6405,13.6405,0,0,1-3.43-6.8624l4.2885-.6863a10.9823,10.9823,0,0,0,3.03,5.2036,12.8289,12.8289,0,0,0,9.0359,3.3746,16.8307,16.8307,0,0,0,4.2605-.544,10.4578,10.4578,0,0,0,3.5156-1.5723,7.066,7.066,0,0,0,3.0315-5.89,6.396,6.396,0,0,0-.43-2.3159,5.078,5.078,0,0,0-1.2863-1.9154,6.8168,6.8168,0,0,0-2.2014-1.4871q-1.23-.5148-3.5169-1.2012l-7.5473-2.2293q-3.0888-.9144-4.7182-1.5736a9.5842,9.5842,0,0,1-3.0593-2.03,8.7278,8.7278,0,0,1-2.8027-6.7479,10.2608,10.2608,0,0,1,1.3727-5.2315,11.0857,11.0857,0,0,1,3.7179-3.86,15.9189,15.9189,0,0,1,8.8056-2.288,21.1539,21.1539,0,0,1,4.7181.5441,14.326,14.326,0,0,1,11.0071,11.5219Z" transform="translate(-153.6638 -207.4515)"/><path class="cls-3" d="M672.9506,207.4515a16.218,16.218,0,1,1-16.3482,16.1309A16.1293,16.1293,0,0,1,672.9506,207.4515Zm0,30.0481c7.5,0,13.31-5.9843,13.31-13.9172,0-7.76-5.8094-13.7445-13.31-13.7445a13.3517,13.3517,0,0,0-13.3985,13.7445C659.5521,231.5153,665.3618,237.5,672.9506,237.5Zm-6.3322-23.3263h7.33c4.5082,0,6.6336,1.7794,6.6336,5.42,0,3.4244-2.1695,4.8578-4.9868,5.1615l5.42,8.3675h-3.1652l-5.16-8.152h-3.1207v8.152h-2.95Zm2.95,8.4134h3.0784c2.6,0,4.985-.1305,4.985-3.1246,0-2.5137-2.1677-2.9056-4.1622-2.9056h-3.9012Z" transform="translate(-153.6638 -207.4515)"/><path class="cls-4" d="M212.12,228.3358a78.2489,78.2489,0,0,0-26.2493,12.51,48.9709,48.9709,0,1,1-27.8046,37.4939A78.4956,78.4956,0,1,0,212.12,228.3358Z" transform="translate(-153.6638 -207.4515)"/><path class="cls-1" d="M194.0127,294.1679a19.6062,19.6062,0,0,1,38.7271-4.3054,29.4363,29.4363,0,1,0-23.5269,23.44A19.6087,19.6087,0,0,1,194.0127,294.1679Z" transform="translate(-153.6638 -207.4515)"/></svg>